<svg width="20" height="18" viewBox="0 0 20 18" fill="none" xmlns="http://www.w3.org/2000/svg">
<path fill-rule="evenodd" clip-rule="evenodd" d="M1.36967 7.76309C6.73679 5.23111 10.3106 3.54862 12.1045 2.73214C17.2114 0.41615 18.2847 0.0165084 18.9749 0C19.1282 0 19.4657 0.0330168 19.6961 0.233869C19.8798 0.399641 19.926 0.616314 19.9564 0.782774C19.9874 0.949234 20.0178 1.29935 19.9874 1.56624C19.7113 4.73104 18.5152 12.4109 17.9016 15.9423C17.6407 17.4418 17.1348 17.9419 16.6441 17.9921C15.5708 18.0919 14.7577 17.2259 13.73 16.4926C12.1045 15.3432 11.1997 14.6265 9.62045 13.4936C7.79489 12.1942 8.97584 11.4782 10.0194 10.3123C10.2948 10.0124 15.0028 5.34735 15.0952 4.9312C15.1104 4.88099 15.1104 4.68151 15.0034 4.58109C14.8958 4.48135 14.7425 4.51437 14.6197 4.54807C14.4512 4.58109 11.8747 6.44654 6.85964 10.1286C6.12384 10.6789 5.46403 10.9451 4.86628 10.9286C4.20647 10.9121 2.94891 10.5289 1.99782 10.1953C0.847903 9.79569 -0.0721568 9.57901 0.00446205 8.87947C0.0506867 8.51284 0.511033 8.14622 1.36967 7.76309Z" fill="white"/>
</svg>
