<svg width="22" height="18" viewBox="0 0 22 18" fill="none" xmlns="http://www.w3.org/2000/svg">
<path d="M22 2.07682C21.1758 2.49232 20.3502 2.63059 19.3877 2.76955C20.3502 2.21577 21.0375 1.38477 21.3127 0.276546C20.4878 0.831 19.5253 1.10755 18.4252 1.38477C17.6003 0.553773 16.3626 0 15.1249 0C12.2374 0 10.0372 2.76955 10.7245 5.53841C7.01204 5.40014 3.71242 3.59986 1.37462 0.831C0.136917 2.90782 0.824906 5.53841 2.74991 6.92318C2.06193 6.92318 1.37462 6.64595 0.687308 6.36941C0.687308 8.44623 2.19952 10.3848 4.26213 10.9385C3.57414 11.0768 2.88751 11.2151 2.19952 11.0768C2.74991 12.8771 4.39973 14.2612 6.46233 14.2612C4.81252 15.5077 2.33712 16.1997 0 15.9232C2.06193 17.1697 4.40041 18 6.87513 18C15.2625 18 19.9374 10.9385 19.6629 4.43086C20.636 3.86613 21.4423 3.05396 22 2.07682Z" fill="white"/>
</svg>
